<svg width="128" height="128" viewBox="0 0 128 128" fill="none" xmlns="http://www.w3.org/2000/svg">
<g id="2-circle" clip-path="url(#clip0_20_824)">
<path id="Vector" d="M8 64C8 78.8521 13.9 93.0959 24.402 103.598C34.9041 114.1 49.1479 120 64 120C78.8521 120 93.0959 114.1 103.598 103.598C114.1 93.0959 120 78.8521 120 64C120 49.1479 114.1 34.9041 103.598 24.402C93.0959 13.9 78.8521 8 64 8C49.1479 8 34.9041 13.9 24.402 24.402C13.9 34.9041 8 49.1479 8 64ZM128 64C128 80.9739 121.257 97.2525 109.255 109.255C97.2525 121.257 80.9739 128 64 128C47.0261 128 30.7475 121.257 18.7452 109.255C6.74284 97.2525 0 80.9739 0 64C0 47.0261 6.74284 30.7475 18.7452 18.7452C30.7475 6.74284 47.0261 0 64 0C80.9739 0 97.2525 6.74284 109.255 18.7452C121.257 30.7475 128 47.0261 128 64ZM53.168 49.92V50.48H43V49.968C43 40.264 50.032 30.752 64.096 30.752C76.752 30.752 85 38.344 85 48.472C85 56.488 80.2 61.808 74.704 67.912L73.936 68.768L58.144 86.528V87.144H86.128V96H43.376V89.344L67.136 63C70.608 59.2 74.36 54.936 74.36 49.36C74.36 43.408 69.904 39.472 63.856 39.472C57.112 39.472 53.168 44.392 53.168 49.92Z" fill="#AA9F9B"/>
</g>
<defs>
<clipPath id="clip0_20_824">
<rect width="128" height="128" fill="white"/>
</clipPath>
</defs>
</svg>
