<svg width="128" height="128" viewBox="0 0 128 128" fill="none" xmlns="http://www.w3.org/2000/svg">
<g id="3-circle" clip-path="url(#clip0_20_826)">
<path id="Vector" d="M63.344 67.3119H56.312V58.7359H63.016C69.256 58.7359 73.8 54.5599 73.752 48.8399C73.752 43.1679 69.248 39.2799 62.968 39.2799C56.648 39.2799 52.472 43.2639 52.184 47.7199H42.2C42.488 38.6239 49.8 30.7999 63.2 30.7519C75.952 30.6559 84.064 37.8319 84.296 47.2479C84.48 56.3439 77.216 61.4559 72.44 62.2479V62.8079C78.064 63.3679 86.12 67.9279 86.312 78.1439C86.504 89.8159 76.096 97.3119 62.872 97.3119C49.232 97.3119 41.216 89.5759 40.84 80.1599H50.64C51.112 84.9359 56.08 88.6399 62.968 88.6879C70.752 88.7359 75.768 84.1839 75.672 77.8559C75.624 71.6239 70.704 67.3119 63.344 67.3119Z" fill="#AA9F9B"/>
<path id="Vector_2" d="M128 64C128 80.9739 121.257 97.2525 109.255 109.255C97.2525 121.257 80.9739 128 64 128C47.0261 128 30.7475 121.257 18.7452 109.255C6.74284 97.2525 0 80.9739 0 64C0 47.0261 6.74284 30.7475 18.7452 18.7452C30.7475 6.74284 47.0261 0 64 0C80.9739 0 97.2525 6.74284 109.255 18.7452C121.257 30.7475 128 47.0261 128 64ZM8 64C8 78.8521 13.9 93.0959 24.402 103.598C34.9041 114.1 49.1479 120 64 120C78.8521 120 93.0959 114.1 103.598 103.598C114.1 93.0959 120 78.8521 120 64C120 49.1479 114.1 34.9041 103.598 24.402C93.0959 13.9 78.8521 8 64 8C49.1479 8 34.9041 13.9 24.402 24.402C13.9 34.9041 8 49.1479 8 64Z" fill="#AA9F9B"/>
</g>
<defs>
<clipPath id="clip0_20_826">
<rect width="128" height="128" fill="white"/>
</clipPath>
</defs>
</svg>
