<svg width="128" height="128" viewBox="0 0 128 128" fill="none" xmlns="http://www.w3.org/2000/svg">
<g id="4-circle" clip-path="url(#clip0_20_832)">
<path id="Vector" d="M60.152 40.4561C61.912 37.6401 63.664 34.8321 65.408 32.0161H80.872V74.6721H88.936V83.5281H80.88V96.0001H70.8V83.5281H39.824V74.5761C45.984 63.1601 53.072 51.8001 60.16 40.4561H60.152ZM49.8 74.2481V74.6721H70.8V40.5041H70.28C63.344 51.1441 55.984 62.9521 49.8 74.2481Z" fill="#AA9F9B"/>
<path id="Vector_2" d="M128 64C128 80.9739 121.257 97.2525 109.255 109.255C97.2525 121.257 80.9739 128 64 128C47.0261 128 30.7475 121.257 18.7452 109.255C6.74284 97.2525 0 80.9739 0 64C0 47.0261 6.74284 30.7475 18.7452 18.7452C30.7475 6.74284 47.0261 0 64 0C80.9739 0 97.2525 6.74284 109.255 18.7452C121.257 30.7475 128 47.0261 128 64ZM8 64C8 78.8521 13.9 93.0959 24.402 103.598C34.9041 114.1 49.1479 120 64 120C78.8521 120 93.0959 114.1 103.598 103.598C114.1 93.0959 120 78.8521 120 64C120 49.1479 114.1 34.9041 103.598 24.402C93.0959 13.9 78.8521 8 64 8C49.1479 8 34.9041 13.9 24.402 24.402C13.9 34.9041 8 49.1479 8 64Z" fill="#AA9F9B"/>
</g>
<defs>
<clipPath id="clip0_20_832">
<rect width="128" height="128" fill="white"/>
</clipPath>
</defs>
</svg>
