<svg width="25" height="24" viewBox="0 0 25 24" fill="none" xmlns="http://www.w3.org/2000/svg">
<g id="arrow-right-short">
<path id="Vector" d="M15.3357 11H7.25C6.98478 11 6.73043 11.1054 6.54289 11.2929C6.35536 11.4804 6.25 11.7348 6.25 12C6.25 12.2652 6.35536 12.5196 6.54289 12.7071L6.71967 12.5303L6.54289 12.7071C6.73043 12.8946 6.98478 13 7.25 13H15.3357L12.5423 15.7922L12.5422 15.7922C12.3545 15.9799 12.2491 16.2345 12.2491 16.5C12.2491 16.7655 12.3545 17.0201 12.5422 17.2078C12.7299 17.3955 12.9845 17.5009 13.25 17.5009C13.5155 17.5009 13.7701 17.3955 13.9578 17.2078L18.4576 12.708L15.3357 11ZM15.3357 11L12.5423 8.20782L12.5422 8.20778C12.3545 8.02006 12.2491 7.76547 12.2491 7.5C12.2491 7.23453 12.3545 6.97994 12.5422 6.79222C12.7299 6.60451 12.9845 6.49905 13.25 6.49905C13.5155 6.49905 13.7701 6.60451 13.9578 6.79222L13.781 6.969L13.9578 6.79222L18.4576 11.292C18.4576 11.2921 18.4577 11.2922 18.4578 11.2922C18.5508 11.3851 18.6246 11.4953 18.675 11.6167L18.4441 11.7126L18.675 11.6167C18.7254 11.7382 18.7513 11.8685 18.7513 12C18.7513 12.1315 18.7254 12.2618 18.675 12.3833C18.6246 12.5047 18.5508 12.6149 18.4578 12.7078L15.3357 11Z" fill="white" stroke="white" stroke-width="0.5"/>
</g>
</svg>
