<svg width="48" height="48" viewBox="0 0 48 48" fill="none" xmlns="http://www.w3.org/2000/svg">
<g id="database-fill-gear" clip-path="url(#clip0_20_730)">
<path id="Vector" d="M24 3C19.281 3 14.934 3.867 11.712 5.331C8.625 6.735 6 8.979 6 12C6 15.021 8.625 17.265 11.712 18.669C14.934 20.133 19.281 21 24 21C28.719 21 33.066 20.133 36.288 18.669C39.375 17.265 42 15.021 42 12C42 8.979 39.375 6.735 36.288 5.331C33.066 3.867 28.719 3 24 3Z" fill="url(#paint0_linear_20_730)"/>
<path id="Vector_2" d="M6 20.9999V18.4829C7.371 19.7789 9.012 20.7359 10.47 21.3989C14.166 23.0789 18.954 23.9999 24 23.9999C29.046 23.9999 33.834 23.0789 37.53 21.3989C38.988 20.7389 40.629 19.7789 42 18.4829V20.9999C42 22.2719 41.535 23.4059 40.767 24.3989C38.0828 23.7339 35.2592 23.9073 32.6766 24.8958C30.0939 25.8844 27.8762 27.6406 26.322 29.9279C25.5489 29.9763 24.7746 30.0003 24 29.9999C19.281 29.9999 14.934 29.1329 11.712 27.6689C8.625 26.2649 6 24.0209 6 20.9999ZM24.771 32.9939L24 32.9999C18.954 32.9999 14.166 32.0789 10.47 30.3989C9.012 29.7389 7.371 28.7789 6 27.4829V29.9999C6 33.0209 8.625 35.2649 11.712 36.6689C14.934 38.1329 19.281 38.9999 24 38.9999H24.081C23.8594 36.9715 24.0952 34.9192 24.771 32.9939ZM24.765 41.9939L24 41.9999C18.954 41.9999 14.166 41.0789 10.47 39.3989C9.012 38.7389 7.371 37.7789 6 36.4829V38.9999C6 42.0209 8.625 44.2649 11.712 45.6689C14.934 47.1329 19.281 47.9999 24 47.9999C25.608 47.9999 27.174 47.8979 28.665 47.7089C26.8913 46.1744 25.5473 44.2049 24.765 41.9939Z" fill="url(#paint1_linear_20_730)"/>
<path id="Vector_3" fill-rule="evenodd" clip-rule="evenodd" d="M35.658 28.38C36.198 26.541 38.802 26.541 39.345 28.38L39.474 28.824C39.5546 29.0994 39.6958 29.3532 39.8874 29.5669C40.079 29.7805 40.3161 29.9484 40.5812 30.0584C40.8462 30.1683 41.1326 30.2174 41.4191 30.2022C41.7057 30.1869 41.9851 30.1075 42.237 29.97L42.645 29.748C44.328 28.83 46.17 30.672 45.255 32.355L45.03 32.763C44.893 33.0147 44.8141 33.2939 44.7991 33.5801C44.7841 33.8663 44.8334 34.1522 44.9433 34.4169C45.0532 34.6816 45.2209 34.9183 45.4342 35.1097C45.6475 35.3011 45.901 35.4423 46.176 35.523L46.623 35.658C48.459 36.198 48.459 38.802 46.623 39.345L46.173 39.474C45.8981 39.5552 45.6449 39.697 45.4319 39.8889C45.219 40.0808 45.0517 40.3179 44.9424 40.5829C44.8331 40.8479 44.7844 41.134 44.8001 41.4202C44.8158 41.7064 44.8954 41.9855 45.033 42.237L45.255 42.645C46.17 44.328 44.328 46.17 42.645 45.255L42.237 45.03C41.9852 44.893 41.706 44.8141 41.4199 44.7991C41.1337 44.7841 40.8477 44.8334 40.5831 44.9433C40.3184 45.0532 40.0817 45.2209 39.8903 45.4342C39.6989 45.6475 39.5577 45.901 39.477 46.176L39.342 46.623C38.802 48.459 36.198 48.459 35.655 46.623L35.526 46.173C35.4447 45.8981 35.3029 45.6449 35.1111 45.4319C34.9192 45.219 34.682 45.0517 34.417 44.9424C34.1521 44.8331 33.866 44.7844 33.5797 44.8001C33.2935 44.8158 33.0144 44.8954 32.763 45.033L32.355 45.255C30.672 46.17 28.83 44.328 29.745 42.645L29.97 42.237C30.107 41.9852 30.1858 41.706 30.2008 41.4199C30.2158 41.1337 30.1666 40.8477 30.0567 40.5831C29.9468 40.3184 29.779 40.0817 29.5657 39.8903C29.3524 39.6989 29.099 39.5577 28.824 39.477L28.38 39.342C26.541 38.802 26.541 36.198 28.38 35.655L28.824 35.526C29.0994 35.4454 29.3532 35.3041 29.5669 35.1125C29.7805 34.9209 29.9484 34.6839 30.0584 34.4188C30.1683 34.1537 30.2174 33.8674 30.2022 33.5809C30.1869 33.2943 30.1075 33.0148 29.97 32.763L29.748 32.355C28.83 30.672 30.672 28.83 32.355 29.745L32.763 29.97C33.0147 30.107 33.2939 30.1858 33.5801 30.2008C33.8663 30.2158 34.1522 30.1666 34.4169 30.0567C34.6816 29.9468 34.9183 29.779 35.1097 29.5657C35.3011 29.3524 35.4423 29.099 35.523 28.824L35.658 28.38ZM42 37.5C42 38.0909 41.8836 38.6761 41.6574 39.2221C41.4313 39.768 41.0998 40.2641 40.682 40.682C40.2641 41.0998 39.768 41.4313 39.2221 41.6574C38.6761 41.8836 38.0909 42 37.5 42C36.909 42 36.3239 41.8836 35.7779 41.6574C35.2319 41.4313 34.7359 41.0998 34.318 40.682C33.9001 40.2641 33.5687 39.768 33.3425 39.2221C33.1164 38.6761 33 38.0909 33 37.5C33 36.3065 33.4741 35.1619 34.318 34.318C35.1619 33.4741 36.3065 33 37.5 33C38.6935 33 39.838 33.4741 40.682 34.318C41.5259 35.1619 42 36.3065 42 37.5Z" fill="url(#paint2_linear_20_730)"/>
</g>
<defs>
<linearGradient id="paint0_linear_20_730" x1="24" y1="3" x2="24" y2="21" gradientUnits="userSpaceOnUse">
<stop stop-color="#FF6534"/>
<stop offset="1" stop-color="#FF6534" stop-opacity="0.4"/>
</linearGradient>
<linearGradient id="paint1_linear_20_730" x1="24" y1="18.4829" x2="24" y2="47.9999" gradientUnits="userSpaceOnUse">
<stop stop-color="#FF6534"/>
<stop offset="1" stop-color="#FF6534" stop-opacity="0.4"/>
</linearGradient>
<linearGradient id="paint2_linear_20_730" x1="37.5004" y1="27.0007" x2="37.5004" y2="48" gradientUnits="userSpaceOnUse">
<stop stop-color="#FF6534"/>
<stop offset="1" stop-color="#FF6534" stop-opacity="0.4"/>
</linearGradient>
<clipPath id="clip0_20_730">
<rect width="48" height="48" fill="white"/>
</clipPath>
</defs>
</svg>
