<svg width="42" height="42" viewBox="0 0 42 42" fill="none" xmlns="http://www.w3.org/2000/svg">
<g id="gitbook-svgrepo-com 1">
<path id="Vector" d="M18.9036 31.0975C19.0651 31.0977 19.225 31.1298 19.3742 31.1918C19.5234 31.2538 19.6589 31.3447 19.773 31.4591C19.887 31.5735 19.9775 31.7092 20.0391 31.8586C20.1007 32.0079 20.1323 32.1679 20.1321 32.3295C20.1318 32.4911 20.0998 32.651 20.0377 32.8002C19.9757 32.9493 19.8849 33.0848 19.7705 33.1989C19.6561 33.313 19.5203 33.4034 19.371 33.465C19.2216 33.5266 19.0616 33.5582 18.9001 33.558C18.5738 33.5575 18.261 33.4275 18.0307 33.1964C17.8003 32.9654 17.6711 32.6523 17.6716 32.326C17.672 31.9997 17.8021 31.687 18.0331 31.4566C18.2642 31.2262 18.5773 31.097 18.9036 31.0975ZM38.1956 23.4902C38.034 23.4901 37.874 23.4582 37.7248 23.3963C37.5756 23.3343 37.44 23.2436 37.3259 23.1293C37.2117 23.015 37.1212 22.8793 37.0595 22.73C36.9978 22.5807 36.9661 22.4207 36.9662 22.2591C36.9663 22.0976 36.9982 21.9376 37.0602 21.7884C37.1221 21.6392 37.2128 21.5036 37.3271 21.3895C37.4414 21.2753 37.5771 21.1848 37.7264 21.1231C37.8757 21.0613 38.0357 21.0296 38.1973 21.0297C38.5236 21.03 38.8364 21.1598 39.067 21.3907C39.2975 21.6216 39.4269 21.9346 39.4267 22.2609C39.4264 22.5871 39.2966 22.9 39.0657 23.1305C38.8348 23.3611 38.5218 23.4905 38.1956 23.4902ZM38.1956 18.4572C37.1868 18.4582 36.2197 18.8593 35.5064 19.5726C34.7931 20.2859 34.392 21.253 34.3911 22.2617C34.3911 22.6695 34.4593 23.0755 34.5923 23.471L22.0256 30.1612C21.6771 29.6553 21.2108 29.2417 20.667 28.956C20.1231 28.6703 19.5179 28.5212 18.9036 28.5215C17.4528 28.5215 16.1316 29.3527 15.4911 30.6495L4.20181 24.696C3.00831 24.0695 2.11581 22.106 2.21031 20.3175C2.25931 19.3847 2.58131 18.6602 3.07306 18.3802C3.38456 18.2052 3.75906 18.2192 4.15806 18.4275L4.23156 18.4677C7.22406 20.0427 17.0136 25.2 17.4266 25.3907C18.0618 25.6865 18.4153 25.8055 19.5003 25.291L39.7373 14.7665C40.0348 14.6545 40.3813 14.3692 40.3813 13.937C40.3813 13.3385 39.7618 13.1022 39.7601 13.1022C38.6086 12.551 36.8393 11.7232 35.1138 10.9147C31.4248 9.18749 27.2441 7.23099 25.4083 6.26849C23.8228 5.43899 22.5471 6.13899 22.3196 6.27899L21.8786 6.49774C13.6151 10.584 2.55506 16.0615 1.92506 16.4447C0.799809 17.1307 0.101559 18.4975 0.0105594 20.1932C-0.129441 22.883 1.24081 25.6882 3.20256 26.7155L15.1411 32.872C15.2726 33.7763 15.7251 34.6032 16.4159 35.2015C17.1067 35.7997 17.9897 36.1295 18.9036 36.1305C19.9016 36.1288 20.8592 35.7355 21.5703 35.0352C22.2814 34.3349 22.6893 33.3834 22.7063 32.3855L35.8558 25.2577C36.5208 25.7792 37.3486 26.0645 38.1956 26.0645C39.2043 26.0636 40.1714 25.6624 40.8847 24.9492C41.598 24.2359 41.9991 23.2687 42.0001 22.26C41.9991 21.2513 41.598 20.2841 40.8847 19.5708C40.1714 18.8575 39.2043 18.4564 38.1956 18.4555" fill="#FF6534"/>
</g>
</svg>
