<svg width="48" height="48" viewBox="0 0 48 48" fill="none" xmlns="http://www.w3.org/2000/svg">
<g id="inboxes-fill" clip-path="url(#clip0_20_736)">
<path id="Vector" d="M14.9398 3C14.715 3.00032 14.4932 3.05117 14.2906 3.1488C14.0881 3.24642 13.9101 3.38832 13.7698 3.564L4.61984 15H17.9998C18.3977 15 18.7792 15.158 19.0605 15.4393C19.3418 15.7206 19.4998 16.1022 19.4998 16.5C19.4998 17.6935 19.9739 18.8381 20.8179 19.682C21.6618 20.5259 22.8064 21 23.9998 21C25.1933 21 26.3379 20.5259 27.1818 19.682C28.0257 18.8381 28.4998 17.6935 28.4998 16.5C28.4998 16.1022 28.6579 15.7206 28.9392 15.4393C29.2205 15.158 29.602 15 29.9998 15H43.3798L34.2298 3.564C34.0896 3.38832 33.9116 3.24642 33.7091 3.1488C33.5065 3.05117 33.2847 3.00032 33.0598 3H14.9398ZM11.4298 1.689C11.851 1.16251 12.3851 0.737384 12.9926 0.445039C13.6002 0.152694 14.2656 0.000601288 14.9398 0L33.0598 0C33.7341 0.000601288 34.3995 0.152694 35.0071 0.445039C35.6146 0.737384 36.1487 1.16251 36.5698 1.689L47.6698 15.564C47.7951 15.7203 47.8877 15.9001 47.9423 16.0928C47.997 16.2855 48.0124 16.4872 47.9878 16.686L46.8178 26.058C46.6818 27.1467 46.1527 28.1481 45.3301 28.8741C44.5075 29.6 43.448 30.0004 42.3508 30H5.64884C4.55171 30.0004 3.49222 29.6 2.66959 28.8741C1.84697 28.1481 1.31789 27.1467 1.18184 26.058L0.0118441 16.686C-0.0127446 16.4872 0.00272538 16.2855 0.0573416 16.0928C0.111958 15.9001 0.204614 15.7203 0.329844 15.564L11.4298 1.689ZM0.374844 33.51C0.515409 33.35 0.688436 33.2218 0.882412 33.1338C1.07639 33.0459 1.28687 33.0003 1.49984 33H17.9998C18.3977 33 18.7792 33.158 19.0605 33.4393C19.3418 33.7206 19.4998 34.1022 19.4998 34.5C19.4998 35.6935 19.9739 36.8381 20.8179 37.682C21.6618 38.5259 22.8064 39 23.9998 39C25.1933 39 26.3379 38.5259 27.1818 37.682C28.0257 36.8381 28.4998 35.6935 28.4998 34.5C28.4998 34.1022 28.6579 33.7206 28.9392 33.4393C29.2205 33.158 29.602 33 29.9998 33H46.4998C46.7125 33.0001 46.9227 33.0453 47.1165 33.1328C47.3103 33.2203 47.4833 33.348 47.6241 33.5074C47.7648 33.6669 47.87 33.8544 47.9327 34.0576C47.9954 34.2608 48.0142 34.475 47.9878 34.686L46.8178 44.058C46.6818 45.1467 46.1527 46.1481 45.3301 46.8741C44.5075 47.6 43.448 48.0004 42.3508 48H5.64884C4.55171 48.0004 3.49222 47.6 2.66959 46.8741C1.84697 46.1481 1.31789 45.1467 1.18184 44.058L0.0118441 34.686C-0.014693 34.475 0.00394875 34.2607 0.0665326 34.0575C0.129116 33.8542 0.234211 33.6666 0.374844 33.507V33.51Z" fill="url(#paint0_linear_20_736)"/>
</g>
<defs>
<linearGradient id="paint0_linear_20_736" x1="23.9998" y1="0" x2="23.9998" y2="48" gradientUnits="userSpaceOnUse">
<stop stop-color="#FF6534"/>
<stop offset="1" stop-color="#FF6534" stop-opacity="0.4"/>
</linearGradient>
<clipPath id="clip0_20_736">
<rect width="48" height="48" fill="white"/>
</clipPath>
</defs>
</svg>
